<?xml version="1.0" encoding="utf-8"?>
<!-- Generator: Adobe Illustrator 21.0.0, SVG Export Plug-In . SVG Version: 6.00 Build 0)  -->
<svg version="1.1" id="iconmonstr" xmlns="http://www.w3.org/2000/svg" xmlns:xlink="http://www.w3.org/1999/xlink" x="0px" y="0px"
	 viewBox="0 0 24 24" enable-background="new 0 0 24 24" xml:space="preserve">
<path id="plus-6" d="M12,2.833c5.054,0,9.167,4.112,9.167,9.167c0,5.055-4.112,9.167-9.167,9.167c-5.054,0-9.167-4.112-9.167-9.167
	C2.833,6.945,6.946,2.833,12,2.833z M12,1C5.925,1,1,5.925,1,12c0,6.075,4.925,11,11,11s11-4.925,11-11C23,5.925,18.075,1,12,1z
	 M17.5,12.917h-4.583V17.5h-1.833v-4.583H6.5v-1.833h4.583V6.5h1.833v4.583H17.5V12.917z"/>
</svg>
