<svg xmlns="http://www.w3.org/2000/svg" xmlns:xlink="http://www.w3.org/1999/xlink" width="24" height="108" viewBox="0 0 24 108"><svg width="10" height="6" viewBox="0 0 10 6" id="arrow-down" y="0"><g transform="translate(-5 -7)" fill="none" fill-rule="evenodd"><path d="M0 0h20v20H0z"></path><path d="M13.344 7.784a.69.69 0 0 1 .969 0 .675.675 0 0 1 0 .96l-3.869 3.791a.69.69 0 0 1-.97 0L5.605 8.744a.674.674 0 0 1 0-.96.69.69 0 0 1 .969 0l3.385 3.109 3.385-3.109z" fill="#000"></path></g></svg><svg viewBox="0 0 24 24" width="24" height="24" id="icon-minus-circle" y="6"><path d="M12 2.833c5.054 0 9.167 4.112 9.167 9.167S17.055 21.167 12 21.167c-5.054 0-9.167-4.112-9.167-9.167S6.946 2.833 12 2.833zM12 1C5.925 1 1 5.925 1 12s4.925 11 11 11 11-4.925 11-11S18.075 1 12 1zm5.5 11.917h-11v-1.833h11v1.833z"></path></svg><svg viewBox="0 0 24 24" width="24" height="24" id="icon-plus-circle" y="30"><path d="M12 2.833c5.054 0 9.167 4.112 9.167 9.167S17.055 21.167 12 21.167c-5.054 0-9.167-4.112-9.167-9.167S6.946 2.833 12 2.833zM12 1C5.925 1 1 5.925 1 12s4.925 11 11 11 11-4.925 11-11S18.075 1 12 1zm5.5 11.917h-4.583V17.5h-1.833v-4.583H6.5v-1.833h4.583V6.5h1.833v4.583H17.5v1.834z"></path></svg><svg width="24" height="54" viewBox="0 0 24 54" id="sprite-v1" y="54"><svg width="10" height="6" viewBox="0 0 10 6"><g transform="translate(-5 -7)" fill="none" fill-rule="evenodd"><path d="M0 0h20v20H0z"></path><path d="M13.344 7.784a.69.69 0 0 1 .969 0 .675.675 0 0 1 0 .96l-3.869 3.791a.69.69 0 0 1-.97 0L5.605 8.744a.674.674 0 0 1 0-.96.69.69 0 0 1 .969 0l3.385 3.109 3.385-3.109z" fill="#000"></path></g></svg><svg viewBox="0 0 24 24" width="24" height="24" y="6"><path d="M12 2.833c5.054 0 9.167 4.112 9.167 9.167S17.055 21.167 12 21.167c-5.054 0-9.167-4.112-9.167-9.167S6.946 2.833 12 2.833zM12 1C5.925 1 1 5.925 1 12s4.925 11 11 11 11-4.925 11-11S18.075 1 12 1zm5.5 11.917h-11v-1.833h11v1.833z"></path></svg><svg viewBox="0 0 24 24" width="24" height="24" y="30"><path d="M12 2.833c5.054 0 9.167 4.112 9.167 9.167S17.055 21.167 12 21.167c-5.054 0-9.167-4.112-9.167-9.167S6.946 2.833 12 2.833zM12 1C5.925 1 1 5.925 1 12s4.925 11 11 11 11-4.925 11-11S18.075 1 12 1zm5.5 11.917h-4.583V17.5h-1.833v-4.583H6.5v-1.833h4.583V6.5h1.833v4.583H17.5v1.834z"></path></svg></svg></svg>